<svg width="22" height="23" viewBox="0 0 22 23" fill="none" xmlns="http://www.w3.org/2000/svg">
<g clip-path="url(#clip0_758_3686)">
<path fill-rule="evenodd" clip-rule="evenodd" d="M12.3493 12.8501L12.3493 15.9143C12.3493 16.1274 12.522 16.3001 12.7351 16.3001C12.8253 16.3001 12.9127 16.2685 12.982 16.2107L18.4115 11.6861C18.578 11.5474 18.6743 11.3418 18.6743 11.1251C18.6743 10.9084 18.578 10.7028 18.4115 10.5641L12.982 6.03951C12.9127 5.98174 12.8253 5.9501 12.7351 5.9501C12.522 5.9501 12.3493 6.12282 12.3493 6.33589L12.3493 9.4001H10.6243C8.8034 9.4001 6.96533 10.0571 5.74765 11.3458C4.71373 12.44 3.96695 14.1591 4.24174 16.7768C4.98812 15.5978 5.81164 14.6651 6.77296 14.0018C7.97753 13.1708 9.27118 12.8501 10.6243 12.8501H12.3493ZM8.89928 14.8411C7.56405 15.2963 6.41054 16.3785 5.27626 18.4127C5.01942 18.8733 4.54113 19.1751 4.01373 19.175C3.3794 19.175 2.81728 18.7433 2.69885 18.1201C1.31206 10.8227 6.23047 7.6751 10.6243 7.6751L10.6243 6.33589C10.6243 5.17013 11.5693 4.2251 12.7351 4.2251C13.2289 4.2251 13.707 4.39822 14.0864 4.71433L19.5158 9.23889C20.0756 9.70538 20.3993 10.3964 20.3993 11.1251C20.3993 11.8538 20.0756 12.5448 19.5158 13.0113L14.0864 17.5359C13.707 17.852 13.2289 18.0251 12.7351 18.0251C11.5693 18.0251 10.6243 17.0801 10.6243 15.9143L10.6243 14.5751C10.0122 14.5751 9.44077 14.6566 8.89928 14.8411Z" fill="#717F96"/>
</g>
<defs>
<clipPath id="clip0_758_3686">
<rect width="18.4" height="18.4" fill="white" transform="translate(2 2.5)"/>
</clipPath>
</defs>
</svg>
