<svg width="18" height="21" viewBox="0 0 18 21" fill="none" xmlns="http://www.w3.org/2000/svg">
<path d="M3.53358 2.93208L3.53358 5.89326C2.0709 6.30614 0.999999 7.62219 1 9.17049C1 10.7188 2.09701 12.0348 3.53358 12.4735L3.53358 18.0472C3.53358 18.5633 3.95149 19.002 4.5 19.002C5.02239 19.002 5.46642 18.5891 5.46642 18.0472L5.46642 12.4735C6.9291 12.0606 8 10.7446 8 9.19629C8 7.64799 6.9291 6.33194 5.46642 5.91906L5.46642 2.95788C5.46642 2.44178 5.04851 2.0031 4.5 2.0031C3.97761 1.97729 3.53358 2.39017 3.53358 2.93208ZM6.06716 9.17049C6.06716 9.99625 5.38806 10.7188 4.5 10.7188C3.61194 10.7188 2.93284 10.0479 2.93284 9.17049C2.93284 8.29312 3.61194 7.62219 4.5 7.62219C5.38806 7.62219 6.06716 8.34473 6.06716 9.17049Z" fill="#141414" fill-opacity="0.86"/>
<path d="M12.5336 2.95368L12.5336 8.4659C11.0709 8.87836 10 10.1931 10 11.7398C10 13.2865 11.0709 14.6012 12.5336 15.0136L12.5336 18.0501C12.5336 18.5657 12.9515 19.0039 13.5 19.0039C14.0485 19.0039 14.4664 18.5915 14.4664 18.0501L14.4664 15.0136C15.9291 14.6012 17 13.2865 17 11.7398C17 10.1931 15.9291 8.87836 14.4664 8.4659L14.4664 2.95368C14.4664 2.43811 14.0485 1.99988 13.5 1.99988C12.9515 1.99988 12.5336 2.41233 12.5336 2.95368ZM15.0672 11.7398C15.0672 12.5647 14.3881 13.2865 13.5 13.2865C12.6119 13.2865 11.9328 12.6162 11.9328 11.7398C11.9328 10.8633 12.6119 10.1931 13.5 10.1931C14.3881 10.1931 15.0672 10.9149 15.0672 11.7398Z" fill="#141414" fill-opacity="0.86"/>
</svg>
